<svg xmlns="http://www.w3.org/2000/svg" aria-hidden="true" style="position:absolute;width:0;height:0;overflow:hidden">
  <defs>
    <symbol id="icon-truck" viewBox="0 0 32 32">
      <path fill="#ffd550" stroke="#000" stroke-width="1.032" d="M21.714 14.857V9.714h2.889c1.463 0 2.782.882 3.34 2.235l1.053 2.552a.259.259 0 0 1-.239.357h-7.043z" style="fill:var(--color1, #ffd550)"/>
      <path stroke-linecap="round" stroke-linejoin="round" stroke-width="1.032" d="M2.286 18.286h19.429M23.429 27.429a3.429 3.429 0 1 0 0-6.857 3.429 3.429 0 0 0 0 6.857z"/>
      <path fill="#ffd550" stroke="#000" stroke-linecap="round" stroke-linejoin="round" stroke-width="1.032" d="M8.571 27.429a3.429 3.429 0 1 0 0-6.857 3.429 3.429 0 0 0 0 6.857z" style="fill:var(--color1, #ffd550)"/>
      <path stroke-linecap="round" stroke-linejoin="round" stroke-width="1.032" d="M20 23.428h-8M5.114 23.428H3.257c-.258 0-.505-.105-.687-.293s-.285-.442-.285-.707v-14c0-.265.102-.52.285-.707s.429-.293.687-.293h18.457v13.4"/>
      <path stroke-linecap="round" stroke-linejoin="round" stroke-width="1.032" d="M21.714 14.857h8v7.619c0 .253-.105.495-.293.673s-.442.279-.707.279h-1.929M4.572 14.501V9.715M14.857 16h4.786M14.857 25.659h1.714"/>
    </symbol>
    <symbol id="icon-buildings" viewBox="0 0 40 32">
      <path stroke-linecap="round" stroke-linejoin="round" stroke-width="1.391" d="M1.624 31.304h36.439M22.758 31.304V2.026c0-.353-.143-.691-.396-.941s-.598-.39-.957-.39H5.164c-.359 0-.703.14-.957.39s-.396.588-.396.941v29.278"/>
      <path fill="#ffd550" stroke="#000" stroke-linecap="round" stroke-linejoin="round" stroke-width="1.391" d="M22.758 9.441h11.031c1.153 0 2.087.934 2.087 2.087v19.048H22.758V9.441z" style="fill:var(--color1, #ffd550)"/>
      <path stroke-linecap="round" stroke-linejoin="round" stroke-width="1.391" d="M9.64 7.255h5.101M.895 28.389V18.186M38.791 21.101V10.898M24.944 6.526h5.101M11.826 18.186h5.101M9.64 24.745h5.101M27.859 24.745h2.915M27.859 18.186h2.915"/>
    </symbol>
    <symbol id="icon-plane" viewBox="0 0 37 32">
      <path stroke-linecap="round" stroke-linejoin="round" stroke-width=".97" d="M8.39 26.877h17.391M16.646 19.625l7.526-4.531M4.701 18.37l2.916 2.916M.485 17.316l2.916 2.916M7.645 17.185l4.585 4.399a3.817 3.817 0 0 0 4.622.536l18.415-10.965-2.262-2.841c-.588-.736-1.415-1.233-2.329-1.4s-1.857.007-2.658.49l-5.4 3.252-7.298-2.492-2.007.885c-.15.066-.282.169-.382.301a1.01 1.01 0 0 0 .115 1.355l3.734 3.439-3.406 1.994-3.406-1.495-2.043.897c-.149.065-.279.168-.379.298a1.016 1.016 0 0 0 .1 1.347z"/>
      <path fill="#ffd550" stroke="#000" stroke-width=".97" d="M33.423 8.959c-2.924 2.296-5.81 2.585-7.905 0l1.646-1.07a4.68 4.68 0 0 1 6.259 1.07z" style="fill:var(--color1, #ffd550)"/>
    </symbol>
    <symbol id="icon-ship" viewBox="0 0 30 32">
      <path stroke-linecap="round" stroke-linejoin="round" stroke-width="1.143" d="M14.663 4.094V.571M28.754 20.534c-2.143 7.486-12.066 10.099-13.827 10.51a1.072 1.072 0 0 1-.528 0C12.638 30.633 2.715 28.02.572 20.534v-5.02a1.172 1.172 0 0 1 .807-1.115l12.917-4.315c.239-.074.495-.074.734 0l12.917 4.315a1.173 1.173 0 0 1 .807 1.115v5.02z"/>
      <path stroke-linecap="round" stroke-linejoin="round" stroke-width="1.143" d="M14.93 27.237c-1.394-.321-9.244-2.361-10.94-8.205"/>
      <path fill="#ffd550" stroke="#000" stroke-width="1.143" d="M3.99 5.704v7.516l10.598-3.761 10.598 3.761V5.704c0-.947-.767-1.714-1.714-1.714H5.705c-.947 0-1.714.768-1.714 1.714z" style="fill:var(--color1, #ffd550)"/>
      <path stroke-linecap="round" stroke-linejoin="round" stroke-width="1.143" d="M14.663 21.708V10.024M17.665 21.084v-4.786M6.725 10.144V6.725M27.921 11.511V5.357"/>
    </symbol>
     <symbol id="icon-plane-service" viewBox="0 0 26 32">
      <path fill="#ffe6a5" stroke="#000" stroke-width=".4" d="M25.8 16.8c0 7.183-5.734 13-12.8 13S.2 23.983.2 16.8s5.734-13 12.8-13 12.8 5.817 12.8 13z" style="fill:var(--color1, #ffe6a5)"/>
      <path fill="#ffe6a5" stroke="#000" stroke-width=".4" d="M19.4 5.4c0 2.865-2.411 5.2-5.4 5.2S8.6 8.265 8.6 5.4 11.011.2 14 .2s5.4 2.335 5.4 5.2zM24.2 26.6c0 2.865-2.411 5.2-5.4 5.2s-5.4-2.335-5.4-5.2 2.411-5.2 5.4-5.2 5.4 2.335 5.4 5.2z" style="fill:var(--color1, #ffe6a5)"/>
      <path stroke-linecap="round" stroke-linejoin="round" stroke-width=".4" d="M14.01 8.372a2.888 2.888 0 1 0-.001-5.775 2.888 2.888 0 0 0 .001 5.775zM11.346 4.597h5.33M11.346 6.373h5.33"/>
      <path stroke-linecap="round" stroke-linejoin="round" stroke-width=".4" d="M14.01 8.15c.613 0 1.11-1.193 1.11-2.665s-.497-2.665-1.11-2.665c-.613 0-1.11 1.193-1.11 2.665s.497 2.665 1.11 2.665zM17.605 18.955l4.567-2.765M16.858 19.352l-2.066 1.193M3.808 18.797l3.086 2.893a2.617 2.617 0 0 0 3.111.353L22.4 14.83l-1.523-1.869a2.622 2.622 0 0 0-3.357-.599l-3.635 2.139-4.912-1.639-1.351.582c-.101.043-.19.111-.257.198s-.113.189-.131.298a.66.66 0 0 0 .208.595l2.513 2.262-2.292 1.311-2.292-.984-1.375.59a.646.646 0 0 0-.386.49.66.66 0 0 0 .198.592zM9.099 21.063l4.567-2.765M21.405 28.136v-2.664a.22.22 0 0 0-.111-.189l-2.382-1.337a.218.218 0 0 0-.212 0l-2.382 1.337a.222.222 0 0 0-.111.189v2.664a.22.22 0 0 0 .111.189l2.382 1.337a.215.215 0 0 0 .212 0l2.382-1.337a.222.222 0 0 0 .111-.189z"/>
      <path stroke-linecap="round" stroke-linejoin="round" stroke-width=".4" d="m21.405 25.36-2.574 1.443-2.623-1.443M18.807 26.804v2.887"/>
    </symbol>
     <symbol id="icon-calendar" viewBox="0 0 29 32">
      <path fill="none" stroke="#1c1f35" stroke-linecap="round" stroke-linejoin="round" stroke-width=".552" d="M6.069 15.448h3.31v3.31h-3.31v-3.31zM6.069 22.621h3.31v3.31h-3.31v-3.31zM13.241 15.448h3.31v3.31h-3.31v-3.31zM13.241 22.621h3.31v3.31h-3.31v-3.31z" style="stroke:var(--color1, #1c1f35)"/>
      <path fill="#ffd550" stroke="#1c1f35" stroke-linecap="round" stroke-linejoin="round" stroke-width=".552" d="M19.862 15.448h3.31v3.31h-3.31v-3.31z" style="fill:var(--color2, #ffd550);stroke:var(--color1, #1c1f35)"/>
      <path fill="none" stroke="#1c1f35" stroke-linecap="round" stroke-linejoin="round" stroke-width=".552" d="M19.862 22.621h3.31v3.31h-3.31v-3.31z" style="stroke:var(--color1, #1c1f35)"/>
      <path fill="#ffd550" d="M28.69 11.034H.552V4.965c0-.914.741-1.655 1.655-1.655h24.828c.914 0 1.655.741 1.655 1.655v6.069z" style="fill:var(--color2, #ffd550)"/>
      <path fill="none" stroke="#1c1f35" stroke-linecap="round" stroke-linejoin="round" stroke-width=".552" d="M27.586 3.127H1.839c-.711 0-1.287.576-1.287 1.287v25.747c0 .711.576 1.287 1.287 1.287h25.747c.711 0 1.287-.576 1.287-1.287V4.414c0-.711-.576-1.287-1.287-1.287zM22.437.552v5.149M6.989.552v5.149M.552 10.851h28.322" style="stroke:var(--color1, #1c1f35)"/>
    </symbol>
  </defs>
</svg>
